<svg xmlns="http://www.w3.org/2000/svg" viewBox="0 0 64 64"><defs><style>.cls-1{fill:#b0bec5;}.cls-2{fill:#0073b3;}.cls-3{fill:#cfd8dd;}.cls-4{fill:#00cde2;}.cls-5{fill:#ebeff1;}.cls-6{fill:#ff7f00;}</style></defs><title>Color Book</title><g id="Layer_2" data-name="Layer 2"><g id="Layer_1-2" data-name="Layer 1"><path class="cls-1" d="M25.63,2.61H10.29A5.76,5.76,0,0,0,4.53,8.37V58.25A5.76,5.76,0,0,0,10.29,64H25.63a5.76,5.76,0,0,0,5.75-5.75V8.37A5.76,5.76,0,0,0,25.63,2.61ZM18,21.8A3.84,3.84,0,1,1,21.8,18,3.84,3.84,0,0,1,18,21.8Z"/><rect class="cls-2" x="10.29" y="27.55" width="15.35" height="30.69"/><path class="cls-3" d="M12.54,1.68,1.68,12.54a5.76,5.76,0,0,0,0,8.14L37,55.94a5.76,5.76,0,0,0,8.14,0L55.94,45.09a5.76,5.76,0,0,0,0-8.14L20.67,1.68A5.76,5.76,0,0,0,12.54,1.68Zm8.14,19a3.84,3.84,0,1,1,0-5.43A3.84,3.84,0,0,1,20.67,20.67Z"/><rect class="cls-4" x="27.92" y="20.25" width="15.35" height="30.69" transform="translate(-14.74 35.59) rotate(-45)"/><path class="cls-5" d="M2.61,10.29V25.63a5.76,5.76,0,0,0,5.75,5.75H58.25A5.76,5.76,0,0,0,64,25.63V10.29a5.76,5.76,0,0,0-5.75-5.75H8.37A5.76,5.76,0,0,0,2.61,10.29ZM21.8,18A3.84,3.84,0,1,1,18,14.12,3.84,3.84,0,0,1,21.8,18Z"/><rect class="cls-6" x="35.23" y="2.61" width="15.35" height="30.69" transform="translate(24.94 60.86) rotate(-90)"/></g></g></svg>